<svg xmlns="http://www.w3.org/2000/svg" viewBox="0 0 19 13"><g id="Layer_2" data-name="Layer 2"><g id="Layer_1-2" data-name="Layer 1"><path d="M12.79.24a.72.72,0,0,0-.22-.17A.64.64,0,0,0,12.3,0,.8.8,0,0,0,12,0a1,1,0,0,0-.24.15.7.7,0,0,0-.15.23.57.57,0,0,0,0,.26.63.63,0,0,0,.06.27.91.91,0,0,0,.18.21l4.85,4.71H.64a.69.69,0,0,0-.45.2A.65.65,0,0,0,0,6.52.68.68,0,0,0,.19,7a.69.69,0,0,0,.45.2H16.69l-4.86,4.71a.66.66,0,0,0-.19.46.68.68,0,0,0,.19.46.64.64,0,0,0,.22.14.75.75,0,0,0,.26.05.74.74,0,0,0,.25-.05.55.55,0,0,0,.22-.14L18.8,7A.8.8,0,0,0,19,6.77.74.74,0,0,0,19,6.52.7.7,0,0,0,19,6.27a.8.8,0,0,0-.15-.21Z"/></g></g></svg>