<svg xmlns="http://www.w3.org/2000/svg" viewBox="0 0 54.1 54"><defs><style>.cls-1{fill:#0f2421;}</style></defs><g id="Layer_2" data-name="Layer 2"><g id="Layer_1-2" data-name="Layer 1"><path class="cls-1" d="M53.25,48.18H50.84V21.93a4.55,4.55,0,0,0,3.24-4.4V14a.72.72,0,0,0-.33-.83L46.27,5.07V3.32A3.33,3.33,0,0,0,43,0H11.13A3.33,3.33,0,0,0,7.81,3.32V5.07C-.33,13.87.17,13.29.08,13.46a2,2,0,0,1-.08.33v3.74a4.55,4.55,0,0,0,3.24,4.4V48.18H.91A.8.8,0,0,0,.08,49v4.15A.79.79,0,0,0,.91,54H53.25a.78.78,0,0,0,.83-.83V49A.84.84,0,0,0,53.25,48.18Zm-4.9-28c-2.24-1-1.66-3.49-1.74-5.57h5.81v2.91A2.92,2.92,0,0,1,48.35,20.19ZM42,20.44a3,3,0,0,1-2.91-2.91V14.62h5.81v2.91A2.89,2.89,0,0,1,42,20.44Zm-7.48,0a3,3,0,0,1-2.91-2.91V14.62h5.82v2.91A2.94,2.94,0,0,1,34.56,20.44Zm-7.48,0a2.94,2.94,0,0,1-2.9-2.91V14.62H30v2.91A2.89,2.89,0,0,1,27.08,20.44Zm-7.47,0a3,3,0,0,1-2.91-2.91V14.62h5.81v2.91A2.89,2.89,0,0,1,19.61,20.44Zm-7.48,0a3,3,0,0,1-2.91-2.91V14.62H15v2.91A3,3,0,0,1,12.13,20.44ZM9.06,6.23h3.32L8,13H2.82ZM51.34,13H46.19l-4.4-6.73h3.32ZM39.79,6.23,44.28,13h-5.4L36.22,6.23Zm-5.4,0L37.05,13H31.57l-.75-5.73-.16-1Zm-5.4,0L29.91,13H24.34l.83-6.73ZM22.6,13H17.11l2.66-6.73h3.74Zm-7.31,0H9.89l4.48-6.73h3.57ZM9.55,3.32a1.67,1.67,0,0,1,1.67-1.66H43A1.67,1.67,0,0,1,44.7,3.32V4.57H9.55ZM1.74,17.53V14.62H7.56v2.91a3,3,0,0,1-2.91,2.91H4.57A2.88,2.88,0,0,1,1.74,17.53ZM5,22.1a4.77,4.77,0,0,0,3.41-1.91,4.27,4.27,0,0,0,3.74,1.91,4.66,4.66,0,0,0,3.74-1.91,4.59,4.59,0,0,0,3.65,1.91h.09a4.64,4.64,0,0,0,3.73-1.91A4.6,4.6,0,0,0,27,22.1h.08a4.75,4.75,0,0,0,3.74-1.91,4.39,4.39,0,0,0,3.66,1.91h.08a4.64,4.64,0,0,0,3.74-1.91A4.49,4.49,0,0,0,42,22.1H42a4.67,4.67,0,0,0,3.74-1.91,4.49,4.49,0,0,0,3.4,1.91V48.18H45.86V27.33A.78.78,0,0,0,45,26.5H32.48a.78.78,0,0,0-.83.83V48.18H5ZM33.31,39h1.25a.83.83,0,1,0,0-1.66H33.31V28.16H44.2v20H33.31ZM52.42,52.34H1.74V49.85H52.42Z"/></g></g></svg>