<svg xmlns="http://www.w3.org/2000/svg" viewBox="0 0 62 62"><defs><style>.cls-1{fill:#0f2421;}</style></defs><g id="Layer_2" data-name="Layer 2"><g id="Layer_1-2" data-name="Layer 1"><path class="cls-1" d="M55.11,27.69V24.11a24.11,24.11,0,0,0-48.22,0v3.58A8.24,8.24,0,0,0,6.89,44v.14a4.82,4.82,0,0,0,9.64,0V27.56a4.79,4.79,0,0,0-4.82-4.83,4.11,4.11,0,0,0-2.07.49,21.38,21.38,0,0,1,42.72,0,5,5,0,0,0-2.07-.49,4.79,4.79,0,0,0-4.82,4.83V44.09a4.82,4.82,0,1,0,9.64,0V44a8.18,8.18,0,0,0,4.13-2v.76a12.44,12.44,0,0,1-12.4,12.4h-5a5.51,5.51,0,1,0,0,2.76h5A15.2,15.2,0,0,0,62,42.71V35.82A8.23,8.23,0,0,0,55.11,27.69ZM6.89,41.13a5.54,5.54,0,0,1-4.13-5.31,5.47,5.47,0,0,1,4.13-5.3Zm4.82-15.64a2,2,0,0,1,2.07,2.07V44.09a2.07,2.07,0,0,1-4.14,0V27.56A2,2,0,0,1,11.71,25.49Zm40.65,18.6a2.07,2.07,0,1,1-4.14,0V27.56a2.07,2.07,0,0,1,4.14,0ZM36.51,59.24a2.76,2.76,0,1,1,2.76-2.75A2.76,2.76,0,0,1,36.51,59.24Zm18.6-18.11V30.52a5.47,5.47,0,0,1,0,10.61ZM32.17,40l2.34-3.51H37.2a4.14,4.14,0,0,0,4.13-4.13V24.11A4.14,4.14,0,0,0,37.2,20H24.8a4.14,4.14,0,0,0-4.13,4.13v8.27a4.14,4.14,0,0,0,4.13,4.13h2.69L29.83,40a1.41,1.41,0,0,0,2.34,0Zm-2.75-5.64a1.35,1.35,0,0,0-1.18-.62H24.8a1.38,1.38,0,0,1-1.38-1.38V24.11a1.38,1.38,0,0,1,1.38-1.38H37.2a1.38,1.38,0,0,1,1.38,1.38v8.27a1.38,1.38,0,0,1-1.38,1.38H33.76a1.35,1.35,0,0,0-1.18.62L31,36.79Zm4.34-4.76H28.24a1.38,1.38,0,0,1,0-2.75h5.52a1.38,1.38,0,0,1,0,2.75Z"/></g></g></svg>