<svg xmlns="http://www.w3.org/2000/svg" viewBox="0 0 55.08 54.25"><defs><style>.cls-1{fill:#0f2421;stroke:#fff;}</style></defs><g id="Layer_2" data-name="Layer 2"><g id="Layer_1-2" data-name="Layer 1"><path class="cls-1" d="M28.05.59h0L53.42,8.88a1.77,1.77,0,0,1,1.16,1.62V43.71a1.68,1.68,0,0,1-1.13,1.61h0L28.08,53.69h0a2.46,2.46,0,0,1-1.08,0h0L1.65,45.41A1.75,1.75,0,0,1,.5,43.79V10.5A1.66,1.66,0,0,1,1.63,8.89h0L27,.61h0A1.41,1.41,0,0,1,28.05.59Zm-2.85,49,.08,0H26V20l-.35-.12-8.37-2.7L16.58,17v15.5a1.68,1.68,0,1,1-3.36,0V15.8l-.34-.11L4.51,13l-.65-.21V42.59l.34.11ZM27.39,17l.15.05.15-.05,18.39-6,1.46-.48L46.08,10,27.69,4l-.15,0-.16,0L9,10l-1.46.47L9,11l5.84,1.91L15,13l.16-.06,9.31-3.4a1.75,1.75,0,0,1,2.17,1,1.67,1.67,0,0,1-1,2.14l-4.17,1.48-1.4.49,1.41.45ZM50.87,42.7l.35-.11V12.77l-.66.22-21,6.88-.34.12V49.8l.65-.22,8.37-2.7.34-.11V35.51a1.59,1.59,0,0,1,1.6-1.68,1.66,1.66,0,0,1,1.67,1.68v10.1l.66-.21Z"/></g></g></svg>