<svg xmlns="http://www.w3.org/2000/svg" viewBox="0 0 23 26"><defs><style>.cls-1{fill:#151442;}</style></defs><g id="Layer_2" data-name="Layer 2"><g id="Layer_1-2" data-name="Layer 1"><path class="cls-1" d="M23,21.39V7.13H16.43V5A5.09,5.09,0,0,0,15,1.47a4.87,4.87,0,0,0-7,0A5.13,5.13,0,0,0,6.57,5v2.1H0V21.39a4.7,4.7,0,0,0,1.32,3.26A4.5,4.5,0,0,0,4.52,26h14a4.5,4.5,0,0,0,3.2-1.35A4.7,4.7,0,0,0,23,21.39ZM9,5a2.54,2.54,0,0,1,.72-1.78,2.44,2.44,0,0,1,3.48,0A2.54,2.54,0,0,1,14,5v2.1H9ZM2.46,21.39V9.65H6.57v3.77H9V9.65H14v3.77h2.47V9.65h4.11V21.39a2.11,2.11,0,0,1-.61,1.48,2,2,0,0,1-1.45.61h-14a2,2,0,0,1-1.45-.61A2.11,2.11,0,0,1,2.46,21.39Z"/></g></g></svg>